<svg id="Layer_2" height="512" viewBox="0 0 128 128" width="512" xmlns="http://www.w3.org/2000/svg" data-name="Layer 2"><path d="M100.417 43V6.865a6.758 6.758 0 00-6.75-6.75H34.333a6.758 6.758 0 00-6.75 6.75V43a6.726 6.726 0 002.232 5 6.726 6.726 0 00-2.232 5v61.13a6.758 6.758 0 006.75 6.75h.917v5.37A1.75 1.75 0 0037 128h12.5a1.75 1.75 0 001.75-1.75v-5.37h25.5v5.37A1.75 1.75 0 0078.5 128H91a1.75 1.75 0 001.75-1.75v-5.37h.917a6.758 6.758 0 006.75-6.75V53a6.726 6.726 0 00-2.232-5 6.726 6.726 0 002.232-5zM47.75 124.5h-9v-3.62h9zm41.5 0h-9v-3.62h9zM96.917 53v61.13a3.254 3.254 0 01-3.25 3.25H34.333a3.254 3.254 0 01-3.25-3.25V53a3.254 3.254 0 013.25-3.25h59.334a3.254 3.254 0 013.25 3.25zm-62.584-6.75a3.254 3.254 0 01-3.25-3.25V6.865a3.254 3.254 0 013.25-3.25h59.334a3.254 3.254 0 013.25 3.25V43a3.254 3.254 0 01-3.25 3.25z"/><path d="M88.658 12.682h-6.5a1.75 1.75 0 00-1.75 1.75v21a1.75 1.75 0 001.75 1.75h6.5a1.75 1.75 0 001.75-1.75v-21a1.75 1.75 0 00-1.75-1.75zm-1.75 21h-3v-17.5h3zm-4.75 47.076h6.5a1.75 1.75 0 001.75-1.75v-21a1.75 1.75 0 00-1.75-1.75h-6.5a1.75 1.75 0 00-1.75 1.75v21a1.75 1.75 0 001.75 1.75zm1.75-21h3v17.5h-3z"/></svg>