<svg id="OutLine" height="512" width="512" xmlns="http://www.w3.org/2000/svg"><path d="M488 16H24a8 8 0 00-8 8v464a8 8 0 008 8h464a8 8 0 008-8V24a8 8 0 00-8-8zm-8 464H32V128h448zm0-368H32V32h448z"/><path d="M192 96h128a8 8 0 008-8V56a8 8 0 00-8-8H192a8 8 0 00-8 8v32a8 8 0 008 8zm8-32h112v16H200zM80 96a24 24 0 10-24-24 24.027 24.027 0 0024 24zm0-32a8 8 0 11-8 8 8.011 8.011 0 018-8zm64 32a24 24 0 10-24-24 24.027 24.027 0 0024 24zm0-32a8 8 0 11-8 8 8.011 8.011 0 018-8zm224 32a24 24 0 10-24-24 24.027 24.027 0 0024 24zm0-32a8 8 0 11-8 8 8.011 8.011 0 018-8zm64 32a24 24 0 10-24-24 24.027 24.027 0 0024 24zm0-32a8 8 0 11-8 8 8.011 8.011 0 018-8zm-8 144H88a8 8 0 00-8 8v208a8 8 0 008 8h336a8 8 0 008-8V216a8 8 0 00-8-8zm-8 208H96V224h320z"/><path d="M120 400h272a8 8 0 000-16H120a8 8 0 000 16zM64 160h384a8 8 0 000-16H64a8 8 0 000 16z"/></svg>